<svg width="22" height="29" viewBox="0 0 22 29" fill="none" xmlns="http://www.w3.org/2000/svg">
<path d="M8.48836 0.0344304C8.56744 0.0352231 8.64799 0.0500282 8.71947 0.07936C8.86556 0.134785 8.98158 0.242609 9.04465 0.376241C9.10706 0.509912 9.11003 0.66057 9.05446 0.798204C9.05446 0.798204 8.95662 1.61001 8.63384 2.93892C7.59324 7.24072 5.86964 11.3817 3.5204 15.2319L2.514 16.7358C2.48754 16.8045 2.44554 16.8687 2.38828 16.9222C2.33371 16.9761 2.26918 17.019 2.19456 17.0485C2.12063 17.0785 2.04253 17.0942 1.96029 17.096C1.88121 17.0952 1.80063 17.0804 1.72915 17.0511C0.758897 16.7058 2.52519 11.3955 2.87185 10.4682C3.43749 8.92334 4.81163 5.61771 5.60163 4.16028C6.30727 2.87027 7.08784 1.61183 7.93463 0.394645C7.96109 0.325906 8.0031 0.261754 8.06036 0.208281C8.11493 0.154356 8.17946 0.111449 8.25408 0.081977C8.32804 0.0525447 8.40678 0.0362288 8.48836 0.0344304Z" fill="white"/>
<path d="M21.2341 23.5128C21.2483 23.5906 21.249 23.6725 21.2338 23.7482C21.207 23.9022 21.1232 24.0365 21.0039 24.1238C20.8845 24.2104 20.7371 24.2419 20.5914 24.2134C20.5914 24.2134 19.7758 24.2712 18.4098 24.2062C13.9887 23.9999 9.59616 23.0924 5.37042 21.5156L3.70305 20.8125C3.63055 20.7995 3.55954 20.7705 3.49619 20.7244C3.4329 20.681 3.37854 20.6258 3.33545 20.5581C3.29194 20.4912 3.26181 20.4175 3.24442 20.3371C3.2302 20.2593 3.22946 20.1774 3.24472 20.1016C3.39984 19.0835 8.94862 19.8112 9.92486 19.9758C11.5489 20.2384 15.0551 20.961 16.6358 21.4605C18.0362 21.9088 19.4198 22.4367 20.7754 23.0374C20.8479 23.0503 20.9189 23.0794 20.9822 23.1255C21.0455 23.1689 21.0999 23.2241 21.143 23.2918C21.1859 23.3588 21.2168 23.433 21.2341 23.5128Z" fill="white"/>
<path d="M18.8565 8.7039C18.9199 8.75116 18.9763 8.8106 19.0167 8.87644C19.102 9.00733 19.1322 9.16283 19.1043 9.30795C19.076 9.45271 18.9895 9.57615 18.8635 9.65456C18.8635 9.65456 18.3059 10.2526 17.2617 11.1357C13.8851 13.997 10.0516 16.3256 5.88413 18.0506L4.18463 18.672C4.12273 18.7119 4.05096 18.739 3.97318 18.7485C3.89731 18.7599 3.81989 18.7565 3.74224 18.7363C3.66482 18.717 3.59253 18.6835 3.52502 18.6365C3.46161 18.5893 3.40525 18.5298 3.3648 18.464C2.78466 17.6131 7.34199 14.3651 8.16871 13.8204C9.53634 12.9061 12.5951 11.0461 14.0924 10.3346C15.4229 9.70866 16.7953 9.15235 18.1969 8.66841C18.2588 8.62849 18.3305 8.60143 18.4083 8.59199C18.4842 8.58061 18.5616 8.584 18.6393 8.60418C18.7164 8.62401 18.7896 8.65725 18.8565 8.7039Z" fill="white"/>
</svg>
